<svg width="32" height="32" viewBox="0 0 32 32" fill="none" xmlns="http://www.w3.org/2000/svg">
<g clip-path="url(#clip0_25_77)">
<path d="M30.08 16C30.08 8.22384 23.7762 1.92 16 1.92C8.22384 1.92 1.92 8.22384 1.92 16C1.92 23.7762 8.22384 30.08 16 30.08V32C7.16346 32 0 24.8365 0 16C0 7.16346 7.16346 0 16 0C24.8365 0 32 7.16346 32 16C32 24.8365 24.8365 32 16 32V30.08C23.7762 30.08 30.08 23.7762 30.08 16Z" fill="#364B9B"/>
<path d="M26.24 16C26.24 10.3446 21.6554 5.75997 16 5.75997C10.3446 5.75997 5.76003 10.3446 5.76003 16C5.76003 21.6554 10.3446 26.24 16 26.24V28.16C9.28425 28.16 3.84003 22.7157 3.84003 16C3.84003 9.28419 9.28425 3.83997 16 3.83997C22.7158 3.83997 28.16 9.28419 28.16 16C28.16 22.7157 22.7158 28.16 16 28.16V26.24C21.6554 26.24 26.24 21.6554 26.24 16Z" fill="#5A7DFF"/>
</g>
<defs>
<clipPath id="clip0_25_77">
<rect width="32" height="32" fill="white"/>
</clipPath>
</defs>
</svg>
