<svg width="51" height="32" viewBox="0 0 51 32" fill="none" xmlns="http://www.w3.org/2000/svg">
<g clip-path="url(#clip0_25_32)">
<mask id="mask0_25_32" style="mask-type:luminance" maskUnits="userSpaceOnUse" x="0" y="0" width="40" height="18">
<path d="M39.057 0H0V17.6H39.057V0Z" fill="white"/>
</mask>
<g mask="url(#mask0_25_32)">
<path d="M33.8924 16C33.8924 8.22384 27.5337 1.92 19.6899 1.92C11.8461 1.92 5.48737 8.22384 5.48737 16C5.48737 23.7762 11.8461 30.08 19.6899 30.08V32C10.7765 32 3.55066 24.8365 3.55066 16C3.55066 7.16346 10.7765 0 19.6899 0C28.6033 0 35.8291 7.16346 35.8291 16C35.8291 24.8365 28.6033 32 19.6899 32V30.08C27.5337 30.08 33.8924 23.7762 33.8924 16Z" fill="#5A7DFF"/>
</g>
<path d="M49.0633 16C49.0633 8.22384 42.7047 1.92 34.8607 1.92C27.0169 1.92 20.6582 8.22384 20.6582 16C20.6582 23.7762 27.0169 30.08 34.8607 30.08V32C25.9473 32 18.7215 24.8365 18.7215 16C18.7215 7.16346 25.9473 0 34.8607 0C43.7741 0 51 7.16346 51 16C51 24.8365 43.7741 32 34.8607 32V30.08C42.7047 30.08 49.0633 23.7762 49.0633 16Z" fill="#364B9B"/>
<path d="M33.8924 16C33.8924 8.22384 27.5337 1.92 19.6899 1.92C11.8461 1.92 5.48737 8.22384 5.48737 16C5.48737 23.7762 11.8461 30.08 19.6899 30.08V32C10.7765 32 3.55066 24.8365 3.55066 16C3.55066 7.16346 10.7765 0 19.6899 0C28.6033 0 35.8291 7.16346 35.8291 16C35.8291 24.8365 28.6033 32 19.6899 32V30.08C27.5337 30.08 33.8924 23.7762 33.8924 16Z" fill="#5A7DFF"/>
</g>
<defs>
<clipPath id="clip0_25_32">
<rect width="51" height="32" fill="white"/>
</clipPath>
</defs>
</svg>
