<svg width="38" height="32" viewBox="0 0 38 32" fill="none" xmlns="http://www.w3.org/2000/svg">
<g clip-path="url(#clip0_25_70)">
<path d="M32.6864 23.1326V17.6926C32.6864 17.3391 32.3982 17.0526 32.0424 17.0526C31.6481 17.0526 31.3286 17.3702 31.3285 17.7619V23.4073C31.3285 24.6693 30.2988 25.6925 29.0286 25.6926C27.7585 25.6926 26.7288 24.6694 26.7288 23.4073V17.5429C26.7287 17.2721 26.5079 17.0526 26.2354 17.0526C25.9656 17.0526 25.7455 17.268 25.7416 17.536L25.6583 23.2716C25.6388 24.6143 24.5378 25.6926 23.1864 25.6926C21.8525 25.6926 20.7712 24.618 20.7712 23.2926V17.7726C20.7712 17.3749 20.4468 17.0526 20.0466 17.0526C19.6464 17.0526 19.322 17.3749 19.322 17.7726V23.2126C19.322 24.5822 18.2046 25.6926 16.8263 25.6926C15.4479 25.6926 14.3305 24.5822 14.3305 23.2126V17.3726C14.3305 17.1958 14.1863 17.0526 14.0085 17.0526C13.7417 17.0526 13.5254 17.2675 13.5254 17.5326V23.3735C13.5254 24.6543 12.4805 25.6925 11.1916 25.6926C9.9027 25.6926 8.85783 24.6543 8.85783 23.3735V17.3745C8.85783 17.1967 8.71272 17.0526 8.5339 17.0526C8.35604 17.0526 8.21186 17.1958 8.21186 17.3726V23.1929C8.2118 24.5734 7.08558 25.6925 5.6963 25.6926C4.30695 25.6926 3.18045 24.5734 3.1804 23.1929V17.6729C3.1804 17.3304 2.90113 17.0526 2.55646 17.0526C2.21174 17.0526 1.9322 17.3304 1.9322 17.6729V24.7326H0V17.6729C0 16.2699 1.14462 15.1326 2.55646 15.1326C3.96826 15.1326 5.11261 16.27 5.11261 17.6729V23.1929C5.11264 23.513 5.37407 23.7726 5.6963 23.7726C6.01846 23.7725 6.2796 23.513 6.27966 23.1929V17.3726C6.27966 16.1354 7.28891 15.1326 8.5339 15.1326C9.77988 15.1326 10.79 16.1363 10.79 17.3745V23.3735C10.79 23.5939 10.9698 23.7726 11.1916 23.7726C11.4134 23.7725 11.5932 23.5939 11.5932 23.3735V17.5326C11.5932 16.2071 12.6746 15.1326 14.0085 15.1326C15.2535 15.1326 16.2627 16.1354 16.2627 17.3726V23.2126C16.2627 23.5218 16.515 23.7726 16.8263 23.7726C17.1375 23.7726 17.3898 23.5218 17.3898 23.2126V17.7726C17.3898 16.3146 18.5793 15.1326 20.0466 15.1326C21.5139 15.1326 22.7034 16.3146 22.7034 17.7726V23.2926C22.7034 23.5577 22.9197 23.7726 23.1864 23.7726C23.4816 23.7726 23.7221 23.537 23.7264 23.2438L23.8097 17.5082C23.8289 16.1907 24.9094 15.1326 26.2354 15.1326C27.575 15.1326 28.661 16.2117 28.661 17.5429V23.4073C28.661 23.609 28.8256 23.7726 29.0286 23.7726C29.2316 23.7725 29.3963 23.609 29.3963 23.4073V17.7619C29.3964 16.3098 30.5809 15.1326 32.0424 15.1326C33.4651 15.1326 34.6186 16.2787 34.6186 17.6926V23.1326C34.6186 23.486 34.9069 23.7726 35.2627 23.7726C35.6186 23.7726 35.9068 23.486 35.9068 23.1326V16.0926H37.839V23.1326C37.839 24.5464 36.6855 25.6926 35.2627 25.6926C33.84 25.6926 32.6864 24.5464 32.6864 23.1326Z" fill="#364B9B"/>
<path d="M33.0764 16C33.0764 8.22384 26.7324 1.92 18.9068 1.92C11.0812 1.92 4.73732 8.22384 4.73732 16C4.73732 23.7762 11.0812 30.08 18.9068 30.08V32C10.0141 32 2.80511 24.8365 2.80511 16C2.80511 7.16346 10.0141 0 18.9068 0C27.7995 0 35.0086 7.16346 35.0086 16C35.0086 24.8365 27.7995 32 18.9068 32V30.08C26.7324 30.08 33.0764 23.7762 33.0764 16Z" fill="#5A7DFF"/>
</g>
<defs>
<clipPath id="clip0_25_70">
<rect width="38" height="32" fill="white"/>
</clipPath>
</defs>
</svg>
