<svg width="320" height="320" viewBox="0 0 320 320" fill="none" xmlns="http://www.w3.org/2000/svg">
<path d="M213.68 226.667V119.547H106.587V226.667M213.627 173.093C213.786 165.966 212.519 158.879 209.902 152.248C207.284 145.617 203.369 139.576 198.384 134.479C193.4 129.382 187.448 125.333 180.877 122.568C174.306 119.803 167.249 118.379 160.12 118.379C152.991 118.379 145.934 119.803 139.363 122.568C132.792 125.333 126.84 129.382 121.856 134.479C116.871 139.576 112.955 145.617 110.338 152.248C107.721 158.879 106.454 165.966 106.613 173.093C106.926 187.077 112.7 200.383 122.7 210.163C132.701 219.943 146.132 225.419 160.12 225.419C174.107 225.419 187.539 219.943 197.54 210.163C207.54 200.383 213.314 187.077 213.627 173.093ZM44.8 226.667L160.107 26.64L275.467 226.667H44.8ZM93.3333 275.467C108.503 284.36 125.281 290.164 142.703 292.546C160.125 294.929 177.846 293.841 194.846 289.347C211.846 284.852 227.789 277.039 241.757 266.358C255.725 255.677 267.443 242.338 276.235 227.11C285.027 211.882 290.721 195.065 292.987 177.628C295.253 160.191 294.048 142.477 289.441 125.508C284.834 108.538 276.916 92.6472 266.142 78.7501C255.369 64.8531 241.953 53.2243 226.667 44.5333C196.059 27.1311 159.81 22.5417 125.831 31.7668C91.8524 40.9919 62.9016 63.2824 45.2967 93.7741C27.6918 124.266 22.8622 160.483 31.8616 194.522C40.8611 228.562 62.9591 257.66 93.3333 275.467Z" stroke="black" stroke-width="8" stroke-miterlimit="5.5" stroke-linejoin="bevel"/>
</svg>
