<svg width="32" height="32" viewBox="0 0 32 32" fill="none" xmlns="http://www.w3.org/2000/svg">
<g clip-path="url(#clip0_25_57)">
<mask id="mask0_25_57" style="mask-type:luminance" maskUnits="userSpaceOnUse" x="-6" y="-6" width="33" height="32">
<path d="M4.89133 25.7394L26.0385 4.59229L15.4649 -5.98127L-5.68223 15.1658L4.89133 25.7394Z" fill="white"/>
</mask>
<g mask="url(#mask0_25_57)">
<path d="M6.16012 24.4704C11.299 29.6093 19.6307 29.6093 24.7695 24.4704C29.9083 19.3317 29.9083 10.9999 24.7695 5.86107C19.6307 0.722199 11.299 0.722199 6.16012 5.86107L4.89131 4.59226C10.7309 -1.24739 20.1988 -1.24739 26.0384 4.59226C31.878 10.4319 31.878 19.8997 26.0384 25.7394C20.1988 31.5789 10.7309 31.5789 4.89131 25.7394C-0.948306 19.8997 -0.948306 10.4319 4.89131 4.59226L6.16012 5.86107C1.02125 10.9999 1.02125 19.3317 6.16012 24.4704Z" fill="#5A7DFF"/>
</g>
<mask id="mask1_25_57" style="mask-type:luminance" maskUnits="userSpaceOnUse" x="6" y="6" width="33" height="33">
<path d="M27.7266 6.28049L6.57947 27.4276L17.153 38.0012L38.3001 16.8541L27.7266 6.28049Z" fill="white"/>
</mask>
<g mask="url(#mask1_25_57)">
<path d="M26.4577 7.84834C21.3189 2.70951 12.9871 2.70951 7.84828 7.84834C2.70945 12.9872 2.70945 21.319 7.84828 26.4578C12.9871 31.5966 21.3189 31.5966 26.4577 26.4578L27.7267 27.7267C21.887 33.5663 12.4191 33.5663 6.57947 27.7267C0.739867 21.887 0.739867 12.4191 6.57947 6.57953C12.4191 0.739928 21.8869 0.739928 27.7267 6.57953C33.5662 12.4191 33.5662 21.887 27.7267 27.7267L26.4577 26.4578C31.5966 21.319 31.5966 12.9872 26.4577 7.84834Z" fill="#364B9B"/>
</g>
</g>
<defs>
<clipPath id="clip0_25_57">
<rect width="32" height="32" fill="white"/>
</clipPath>
</defs>
</svg>
